<?xml version="1.0" encoding="utf-8"?>
<!-- Generator: Adobe Illustrator 24.1.2, SVG Export Plug-In . SVG Version: 6.00 Build 0)  -->
<svg version="1.1" id="Laag_1" xmlns="http://www.w3.org/2000/svg" xmlns:xlink="http://www.w3.org/1999/xlink" x="0px" y="0px"
	 viewBox="0 0 1920 1080" style="enable-background:new 0 0 1920 1080;" xml:space="preserve">
<style type="text/css">
	.st0{fill:url(#SVGID_1_);}
	.st1{fill:#FFFFFF;}
	.st2{fill:#00E600;}
	.st3{fill:#969696;}
</style>
<g>
	<g>
		<linearGradient id="SVGID_1_" gradientUnits="userSpaceOnUse" x1="616.1866" y1="479.4453" x2="855.7682" y2="479.4453">
			<stop  offset="5.000000e-02" style="stop-color:#008200"/>
			<stop  offset="0.2321" style="stop-color:#00A400"/>
			<stop  offset="0.4279" style="stop-color:#00C100"/>
			<stop  offset="0.6229" style="stop-color:#00D500"/>
			<stop  offset="0.8148" style="stop-color:#00E200"/>
			<stop  offset="1" style="stop-color:#00E600"/>
		</linearGradient>
		<path class="st0" d="M794.6,465.5v85.2c0,27.6,21.8,29.4,61.1,27V666C735.8,680.7,697,643.7,697,553.1v-87.6h-80.8v-93.5H697
			v-52.9l97.6-29.4v82.3h61.1v93.5H794.6z"/>
	</g>
	<path class="st1" d="M656.6,372.1l-90,294h-95.2l-42.3-149.3L386.7,666h-95.2l-90-294H305L343.8,532l44.1-159.9h82.3L514.3,532
		l38.8-159.9H656.6z"/>
	<g>
		<g>
			<g>
				<path class="st1" d="M856.1,322.2h-5.2v12.1H844v-34.9h14c6.4,0,11.6,5.2,11.6,11.6c0,4.4-2.7,8.3-6.7,10.2l7.7,13.2h-7.4
					L856.1,322.2z M850.8,316.2h7.1c2.6,0,4.7-2.3,4.7-5.2c0-2.9-2.1-5.1-4.7-5.1h-7.1V316.2z"/>
			</g>
		</g>
		<g>
			<path class="st1" d="M855.8,351.3c-18.5,0-33.6-15.1-33.6-33.6c0-18.5,15.1-33.6,33.6-33.6s33.6,15.1,33.6,33.6
				C889.3,336.2,874.3,351.3,855.8,351.3z M855.8,289c-15.8,0-28.7,12.9-28.7,28.7c0,15.8,12.9,28.7,28.7,28.7s28.7-12.9,28.7-28.7
				C884.5,301.9,871.6,289,855.8,289z"/>
		</g>
	</g>
	<g>
		<path class="st1" d="M1085.7,371.7l-33.4,109l-35.3,0l-15.7-55.4l-15.7,55.4l-35.3,0l-33.3-109l38.4,0l14.4,59.3l16.4-59.3l30.5,0
			l16.3,59.3l14.4-59.3L1085.7,371.7z"/>
		<path class="st1" d="M1088.5,426.2c0-32.5,26-57.5,58.2-57.5c32.5,0,58.2,25.1,58.2,57.6c0,32.5-25.7,57.5-58.2,57.5
			C1114.7,483.7,1088.5,458.6,1088.5,426.2z M1168.8,426.2c0-13.5-9.4-22.7-22-22.7c-12.4,0-21.8,9.1-21.8,22.7
			c0,13.5,9.4,22.7,21.8,22.7C1159.4,448.9,1168.8,439.7,1168.8,426.2z"/>
		<path class="st1" d="M1289.8,369.6l0,40.1c-14.4-2.2-32.7,4.3-32.7,25.9l0,45.1l-36.2,0l0-109l36.2,0l0,20.3
			C1261.4,377.2,1275.2,369.6,1289.8,369.6z"/>
		<path class="st1" d="M1370.6,480.8l-30.9-46.4l0,46.4l-36.2,0l0.1-152.6l36.2,0l0,89.2l28.1-45.5l41.9,0l-36.6,54.5l38.1,54.5
			L1370.6,480.8z"/>
		<path class="st1" d="M1418.8,341.9c0-11.3,9.6-20.7,20.9-20.7c11.3,0,20.9,9.4,20.9,20.7s-9.6,20.9-20.9,20.9
			C1428.4,362.9,1418.8,353.3,1418.8,341.9z M1421.6,371.8l36.2,0l0,109l-36.2,0L1421.6,371.8z"/>
		<path class="st1" d="M1585.3,415.7l0,65.2l-36.2,0l0-60.6c0-11.8-7-17.2-16.3-17.2c-11.1,0-17.9,6.7-17.9,19.8l0,58l-36.2,0l0-109
			l36.2,0l0,10.9c6.1-8.7,16.8-13.9,30.3-13.9C1567.7,368.8,1585.3,384.3,1585.3,415.7z"/>
		<path class="st1" d="M1718.5,371.9l0,104.6c0,36.4-28.8,51.2-57.4,51.2c-23.8,0-43.8-9-53.6-26.6l30.1-17.4
			c4.8,7.6,11.3,12.4,23.1,12.4c12.2,0,22-6.1,22-19.6l0-10.5c-7,8.5-17,13.5-30.5,13.5c-30.3,0-51.9-25.1-51.9-55.4
			c0-30.3,21.6-55.4,51.9-55.3c13.5,0,23.5,5,30.5,13.5l0-10.5L1718.5,371.9z M1682.8,424.2c0-13.1-9.4-22.7-23.1-22.7
			c-13.7,0-23.1,9.6-23.1,22.7c0,13.1,9.4,22.7,23.1,22.7C1673.4,446.9,1682.7,437.3,1682.8,424.2z"/>
	</g>
	<g>
		<path class="st2" d="M984.8,591.5l0,31.6c0,10.2,8.1,10.9,22.7,10l0,32.7c-44.5,5.4-58.9-8.3-58.8-41.9l0-32.5l-16.3,0l0-34.7
			l16.3,0l0-19.6l36.2-10.9l0,30.5l22.7,0l0,34.7L984.8,591.5z"/>
		<path class="st2" d="M1135.5,556.9l0,109l-36.2,0l0-10c-7,8.3-17,13.1-31,13.1c-29.2,0-51.2-24.9-51.2-57.6
			c0-32.7,22-57.5,51.2-57.5c14,0,24,4.8,30.9,13.1l0-10L1135.5,556.9z M1099.3,611.3c0-14.2-9.4-23.8-22.9-23.8
			c-13.5,0-22.9,9.6-22.9,23.8c0,14.2,9.4,23.8,22.9,23.8C1089.9,635.1,1099.3,625.5,1099.3,611.3z"/>
		<path class="st2" d="M1156.4,505.6l36.2,0l-0.1,159.1l-36.2,0L1156.4,505.6z"/>
		<path class="st2" d="M1269.9,638c7.8,0,14.6-2.6,19.8-7.6l26.2,18.3c-10.9,13.7-27.5,20.3-46.9,20.3c-37.7,0-61-25.1-61-57.4
			c0-32.7,24-57.8,58-57.7c32.7,0,56.2,24.7,56.2,57.4c0,4.6-0.4,8.9-1.5,13.5l-75.2,0C1249.9,635.2,1259.5,638,1269.9,638z
			 M1286.9,599.6c-3.3-11.3-11.8-15.3-20.5-15.3c-10.5,0-18.3,5.2-21.4,15.3L1286.9,599.6z"/>
		<path class="st2" d="M1444.3,600.8l0,65.2l-36.2,0l0-60.6c0-11.8-7-17.2-16.3-17.2c-11.1,0-17.9,6.7-17.9,19.8l0,58l-36.2,0l0-109
			l36.2,0l0,10.9c6.1-8.7,16.8-13.9,30.3-13.9C1426.7,553.9,1444.3,569.4,1444.3,600.8z"/>
		<path class="st2" d="M1508.8,591.7l0,31.6c0,10.2,8.1,10.9,22.7,10l0,32.7c-44.5,5.4-58.9-8.3-58.8-41.9l0-32.5l-16.3,0l0-34.7
			l16.3,0l0-19.6l36.2-10.9l0,30.5l22.7,0l0,34.7L1508.8,591.7z"/>
	</g>
	<g>
		<path class="st3" d="M951.7,734.3v60.8h-10v-60.8H951.7z"/>
		<path class="st3" d="M1005.6,743.9h-17.1v51.2h-10v-51.2h-17.2v-9.6h44.3V743.9z"/>
		<path class="st3" d="M1081.5,754.3c0,11.2-8.7,20-20.1,20H1049v20.8h-10v-60.8h22.4C1072.9,734.3,1081.5,743,1081.5,754.3z
			 M1071.6,754.3c0-6.2-4.3-10.6-10.2-10.6H1049v21.2h12.4C1067.3,764.9,1071.6,760.4,1071.6,754.3z"/>
		<path class="st3" d="M1114.2,772.9h-11.8v22.1h-10v-60.8h24.3c10.9,0,19.5,8.7,19.5,19.5c0,7.8-5,14.8-12.1,17.6l13.8,23.6H1127
			L1114.2,772.9z M1102.4,764h14.3c5.3,0,9.6-4.5,9.6-10.2c0-5.7-4.3-10.2-9.6-10.2h-14.3V764z"/>
		<path class="st3" d="M1144.3,764.7c0-17.6,14-31.5,31.5-31.5c17.6,0,31.5,13.9,31.5,31.5c0,17.6-13.9,31.5-31.5,31.5
			C1158.3,796.2,1144.3,782.3,1144.3,764.7z M1197.4,764.7c0-12.5-9.4-21.8-21.5-21.8c-12.2,0-21.5,9.3-21.5,21.8
			c0,12.5,9.4,21.8,21.5,21.8C1188,786.5,1197.4,777.2,1197.4,764.7z"/>
		<path class="st3" d="M1228.7,743.9v17h24.7v9.6h-24.7v24.7h-10v-60.8h35.6v9.6H1228.7z"/>
		<path class="st3" d="M1302.7,785.5v9.6h-36.9v-60.8h36.5v9.6h-26.5v15.8h24.3v9.5h-24.3v16.4H1302.7z"/>
		<path class="st3" d="M1310.8,781.3l8.6-5c2.2,6.2,6.9,10.2,15.1,10.2c7.9,0,11.3-3.6,11.3-8c0-5.4-4.8-7.2-13.8-10
			c-9.5-2.9-18.7-6.3-18.7-17.8c0-11.2,9.3-17.5,19.5-17.5c10,0,17.4,5.3,21.2,13.4l-8.4,4.9c-2.2-4.9-6-8.5-12.8-8.5
			c-5.8,0-9.6,3-9.6,7.6c0,4.7,3.4,6.7,12.2,9.5c10.1,3.2,20.2,6.3,20.2,18.4c0,11.1-8.9,17.9-21.5,17.9
			C1322.3,796.2,1314,790.3,1310.8,781.3z"/>
		<path class="st3" d="M1361.4,781.3l8.6-5c2.2,6.2,6.9,10.2,15.1,10.2c7.9,0,11.3-3.6,11.3-8c0-5.4-4.8-7.2-13.8-10
			c-9.5-2.9-18.7-6.3-18.7-17.8c0-11.2,9.3-17.5,19.5-17.5c10,0,17.4,5.3,21.2,13.4l-8.4,4.9c-2.2-4.9-6-8.5-12.8-8.5
			c-5.8,0-9.6,3-9.6,7.6c0,4.7,3.4,6.7,12.2,9.5c10.1,3.2,20.2,6.3,20.2,18.4c0,11.1-8.9,17.9-21.5,17.9
			C1372.9,796.2,1364.6,790.3,1361.4,781.3z"/>
		<path class="st3" d="M1426.7,734.3v60.8h-10v-60.8H1426.7z"/>
		<path class="st3" d="M1438,764.7c0-17.6,14-31.5,31.5-31.5c17.6,0,31.5,13.9,31.5,31.5c0,17.6-13.9,31.5-31.5,31.5
			C1452,796.2,1438,782.3,1438,764.7z M1491.1,764.7c0-12.5-9.4-21.8-21.5-21.8s-21.5,9.3-21.5,21.8c0,12.5,9.4,21.8,21.5,21.8
			S1491.1,777.2,1491.1,764.7z"/>
		<path class="st3" d="M1558.8,734.3v60.8h-7.8l-28.7-41.2v41.2h-10v-60.8h7.8l28.7,41.2v-41.2H1558.8z"/>
		<path class="st3" d="M1608.5,782.8h-25.9l-4.3,12.2h-10.9l22.1-60.8h12l22,60.8h-10.8L1608.5,782.8z M1605.2,773.5l-9.6-27.4
			l-9.6,27.4H1605.2z"/>
		<path class="st3" d="M1666.9,785.5v9.6h-34.7v-60.8h10v51.2H1666.9z"/>
		<path class="st3" d="M1671.9,781.3l8.6-5c2.2,6.2,6.9,10.2,15.1,10.2c7.9,0,11.3-3.6,11.3-8c0-5.4-4.8-7.2-13.8-10
			c-9.5-2.9-18.7-6.3-18.7-17.8c0-11.2,9.3-17.5,19.5-17.5c10,0,17.4,5.3,21.2,13.4l-8.4,4.9c-2.2-4.9-6-8.5-12.8-8.5
			c-5.8,0-9.6,3-9.6,7.6c0,4.7,3.4,6.7,12.2,9.5c10.1,3.2,20.2,6.3,20.2,18.4c0,11.1-8.9,17.9-21.5,17.9
			C1683.4,796.2,1675.2,790.3,1671.9,781.3z"/>
	</g>
</g>
</svg>
